#!OML:ASF F:\VICON\USERDATA\INSTALL\rory3\rory3.ASF
:FULLY-SPECIFIED
:DEGREES
1144
root 0.0121425 16.3944 -1.0846 -158.035 -0.472831 178.576
lowerback -15.0208 1.85147 -3.24744
upperback -6.70702 1.95277 -1.27306
thorax 1.2352 0.594606 0.79555
lowerneck -12.6107 2.69196 -0.55462
upperneck 42.7183 -3.60285 3.33111
head 18.2038 -3.08334 0.351737
rclavicle -2.70844e-015 -1.23246e-014
rhumerus -40.2808 29.586 -99.7208
rradius 25.2728
rwrist -12.0948
rhand 29.0899 1.94982
rfingers 7.12502
rthumb 52.8869 -17.6139
lclavicle -2.70844e-015 -1.23246e-014
lhumerus -37.5608 -28.6907 96.6955
lradius 23.1208
lwrist -11.8893
lhand 21.636 18.1669
lfingers 7.12502
lthumb 46.0559 41.2381
rfemur -22.001 -15.4124 25.9148
rtibia 54.8769
rfoot 32.6032 -18.4752
rtoes 21.4991
lfemur -37.5595 0.73867 -33.0946
ltibia 41.0994
lfoot -36.8661 22.1805
ltoes 7.42217
1145
root 0.0134246 16.3992 -1.1134 -157.932 -0.361604 178.529
lowerback -15.2881 1.82657 -3.4126
upperback -6.69036 1.94335 -1.2605
thorax 1.38636 0.585943 0.905959
lowerneck -12.5758 2.72335 -0.485029
upperneck 42.6924 -3.55828 3.3051
head 18.1753 -3.05762 0.335919
rclavicle -1.67476e-014 1.98785e-016
rhumerus -40.437 31.2244 -100.552
rradius 25.9502
rwrist -12.3586
rhand 29.2692 1.63688
rfingers 7.12502
rthumb 53.0487 -17.8246
lclavicle -1.67476e-014 1.98785e-016
lhumerus -37.6621 -30.22 97.4192
lradius 24.0259
lwrist -10.5411
lhand 21.2233 18.4778
lfingers 7.12502
lthumb 45.673 41.7072
rfemur -21.8728 -15.344 25.7245
rtibia 54.6549
rfoot 33.2205 -17.9617
rtoes 20.2622
lfemur -37.4829 0.456727 -33.0767
ltibia 40.9898
lfoot -37.0549 22.3819
ltoes 7.78262
1146
root 0.0214695 16.3987 -1.13757 -157.894 -0.234229 178.656
lowerback -15.3564 1.81861 -3.46098
upperback -6.71669 1.93185 -1.18285
thorax 1.38987 0.579093 1.01361
lowerneck -12.6145 2.80281 -0.406787
upperneck 42.769 -3.44854 3.2286
head 18.2252 -3.0166 0.302868
rclavicle -2.88238e-014 2.38542e-014
rhumerus -40.7605 32.9479 -101.476
rradius 26.6475
rwrist -12.7526
rhand 29.0857 1.72133
rfingers 7.12502
rthumb 52.8831 -17.8447
lclavicle -2.88238e-014 2.38542e-014
lhumerus -38.0249 -32.0128 98.3995
lradius 24.7263
lwrist -9.30365
lhand 20.5594 18.4006
lfingers 7.12502
lthumb 45.0558 41.8782
rfemur -21.6422 -14.9936 25.7787
rtibia 54.3917
rfoot 33.7978 -17.5028
rtoes 18.8047
lfemur -37.4332 0.374399 -32.8842
ltibia 40.928
lfoot -37.2439 22.4909
ltoes 6.7565
1147
root 0.0292587 16.3956 -1.15967 -157.898 -0.122872 178.774
lowerback -15.2421 1.86696 -3.47408
upperback -6.8149 1.97564 -1.17567
thorax 1.22265 0.598973 1.03149
lowerneck -12.6268 2.82391 -0.290349
upperneck 42.9081 -3.51403 3.20574
head 18.3163 -3.04286 0.252048
rclavicle -1.30949e-014 -1.11319e-014
rhumerus -41.2883 34.667 -102.554
rradius 27.5267
rwrist -13.4938
rhand 28.9932 1.80452
rfingers 7.12502
rthumb 52.7995 -17.814
lclavicle -1.30949e-014 -1.11319e-014
lhumerus -38.3297 -33.2455 99.0268
lradius 25.409
lwrist -8.75634
lhand 20.3114 18.2399
lfingers 7.12502
lthumb 44.825 41.808
rfemur -21.343 -14.8175 25.8315
rtibia 54.1381
rfoot 34.168 -16.7788
rtoes 16.6074
lfemur -37.3342 0.26028 -32.696
ltibia 40.9071
lfoot -37.7501 22.2965
ltoes 5.11296
1148
root 0.0246378 16.3928 -1.19194 -157.947 0.0197625 178.416
lowerback -15.3729 1.83471 -3.77976
upperback -6.81538 1.97146 -1.33236
thorax 1.28248 0.593205 1.04147
lowerneck -12.4173 2.8437 -0.133665
upperneck 42.9204 -3.57453 3.17968
head 18.2679 -3.06358 0.197935
rclavicle -8.95152e-015 -8.34896e-015
rhumerus -41.8679 36.4215 -103.724
rradius 28.497
rwrist -14.4481
rhand 28.9086 1.40892
rfingers 7.12502
rthumb 52.7231 -18.2572
lclavicle -8.95152e-015 -8.34896e-015
lhumerus -38.3992 -34.0296 99.3019
lradius 26.1064
lwrist -8.51955
lhand 20.3165 18.0707
lfingers 7.12502
lthumb 44.8298 41.637
rfemur -21.0464 -15.0669 25.1323
rtibia 53.981
rfoot 34.7195 -15.9305
rtoes 15.0564
lfemur -37.0331 0.397169 -33.187
ltibia 40.8444
lfoot -37.958 22.0769
ltoes 4.70306
